ply
format ascii 1.0
comment Created by Open3D
element vertex 162
property double x
property double y
property double z
end_header
128.287 -0.840344 17.0967
64.3112 4.58837 -47.3131
121.29 34.499 -26.1734
166.386 32.2816 18.8664
57.2289 41.2444 -91.3952
20.48 7.78276 -92.8407
-5.2639 9.53712 -135.241
183.697 -15.9532 63.065
-4.60081 90.9512 -111.084
-3.76765 175.117 -85.7993
-5.31892 63.7982 -118.84
-4.71286 36.3762 -126.61
146.243 34.2263 3.2227
-4.40633 146.01 -93.6203
-3.89183 119.002 -102.548
188.858 128.872 102.054
190.585 102.436 94.0116
190.134 75.4518 86.067
190.697 158.019 109.594
190.048 -6.2165 62.9758
-20.3345 191.315 -58.9857
107.107 8.75391 -10.5652
-85.2829 145.533 23.5243
-33.0628 176.594 -45.9459
81.0187 38.3941 -60.1695
151.932 5.28151 35.0867
-37.1639 178.245 -41.3484
180.882 89.2331 94.0634
-100.948 134.815 45.6711
-116.846 122.428 66.1921
-65.1174 154.189 -1.79983
-155.16 -39.3858 95.1352
-80.9816 142.752 19.0914
-12.2238 157.522 -86.9898
-11.7381 130.311 -95.8018
-122.77 39.6342 66.8444
171.134 -44.4706 68.2853
180.98 60.904 85.8836
-12.5773 102.348 -104.25
-48.9435 164.865 -23.786
-65.7138 164.735 6.82318
-96.9579 132.083 41.6441
-112.752 120.618 62.108
41.9841 14.7509 -76.6388
-64.6895 53.5658 -25.6967
87.2283 11.7529 -30.4258
106.359 -43.7685 5.82473
-10.2457 -81.0923 -75.3356
16.9749 -172.02 15.7958
123.237 -90.2647 60.6818
93.9358 -93.3482 28.7442
180.617 33.9306 77.816
60.07 -174.46 58.9598
51.5619 -60.58 -24.6584
-83.5748 73.4049 10.1304
16.2301 -100.261 -41.124
145.36 -94.1611 85.7164
-12.2492 75.0524 -112.36
58.8412 -108.255 7.3455
50.7699 -91.1143 -14.1852
-46.6654 36.7627 -59.0659
95.1352 -64.3904 18.9078
62.5755 -40.7555 -38.8007
6.60874 -77.1875 -57.7044
-14.8113 -8.3954 -131.221
48.675 125.361 -21.4585
13.239 -84.3583 -50.6689
181.459 7.58474 70.3941
17.7272 -143.222 6.31689
-12.0557 46.8746 -121.169
-18.3919 -183.244 -8.98244
-13.6167 19.895 -129.06
61.6506 -147.586 52.1406
-26.7642 -159.053 -26.69
20.7259 79.8557 -69.957
-83.769 -56.0668 -45.482
-39.3991 61.2061 -63.4558
179.342 114.32 101.069
24.7379 -190.132 39.5689
104.714 -91.0864 42.8449
-68.3318 158.639 4.49986
192.749 22.3469 69.4869
-137.637 23.2813 73.961
-49.8442 -157.728 -49.5203
89.3405 -171.812 92.2541
43.677 -102.723 -13.183
182.987 140.156 107.73
78.7841 -127.209 42.7769
87.281 -105.326 31.8501
88.2121 31.6237 -47.5225
-91.2613 9.21807 6.03266
-66.0385 40.9543 -33.8799
-107.273 -124.666 -18.0035
112.268 -174.879 117.132
-27.8921 -81.2146 -91.4416
-130.492 -14.4254 54.3892
-105.423 -9.33844 11.8134
-84.7914 -73.9272 -39.7035
-76.681 98.5342 7.53899
-155.184 -13.145 88.6595
-57.5773 79.7419 -27.7775
192.104 48.7662 76.9088
-35.5619 50.7548 -69.0578
147.422 -54.8101 63.3746
54.1132 -187.32 63.7319
-39.3222 79.8308 -63.1901
-57.8233 97.5481 -27.9799
-65.237 -81.7566 -66.801
-115.838 -40.5361 18.9054
-80.8791 66.6712 3.28657
9.79028 -183.453 18.3819
-73.2503 -42.7205 -47.8893
-150.149 -121.535 47.0683
-31.3261 132.132 -62.585
-72.2685 90.1489 1.68271
13.7884 -46.228 -73.4739
-32.1277 -9.12284 -126.511
-44.5425 131.147 -33.9106
-46.9435 21.0458 -68.9327
-50.8615 107.472 -37.3712
44.4676 -208.549 72.0986
-77.0153 117.871 5.06577
125.748 -122.43 86.4454
36.179 -125.978 1.61239
106.278 -0.234189 -7.82602
-89.697 40.3719 1.279
-163.713 -96.5018 82.1268
-115.951 -22.7504 14.5188
-169.08 -58.8462 102.761
-121.811 73.008 63.2106
-138.256 -90.4645 42.0158
-127.667 -99.7288 31.5438
-147.942 10.2694 74.9934
-145.647 -32.4788 87.0892
-29.0322 117.616 -59.4713
-122.913 92.0563 79.9119
-57.3409 7.41535 -59.1155
-98.5453 -47.7996 -5.29116
-118.063 -138.427 -14.8887
-138.781 -18.9803 60.5802
-149.924 -103.816 44.0768
-35.1272 91.6158 -64.7909
-43.3163 27.8802 -65.516
-91.8874 -79.3205 -32.4503
-182.138 -88.4841 109.008
146.535 -65.5688 70.0027
-106.907 -53.0374 0.147717
-147.614 -6.37847 78.9066
75.2623 170.839 -33.5082
-124.078 -46.1626 27.6932
194.691 -37.5606 67.5828
-132.55 -128.48 21.6063
135.392 0.533189 21.1694
37.4875 43.8502 -109.051
-86.3533 -117.376 -39.4523
150.349 -3.40085 37.7496
-74.6927 -86.1409 -60.4911
-36.4549 -156.605 -35.3958
69.6179 -171.921 71.9013
-85.1692 59.7481 1.54564
-173.248 -100.862 88.6973
46.6596 -64.3236 -25.1367
